<svg xmlns="http://www.w3.org/2000/svg" xmlns:xlink="http://www.w3.org/1999/xlink" version="1.1" x="0px" y="0px" viewBox="0 0 100 100" style="enable-background:new 0 0 100 100;" xml:space="preserve"><g><path d="M31.5,28.4c-2.9,8.9-0.2,17.3,6.6,14c8.2-3.9,8.9-11.9,5.2-19.6c-2.7-5.8-7.1-9.8-12.5-9.8c-1,0-1.6,1.2-0.8,1.9   C32.3,17.2,33.4,22.4,31.5,28.4z"></path><path d="M30.3,42.3c-2.3-2.3-3.4-7.5-1.5-13.5c2.9-8.9,0.2-17.3-6.6-14C14,18.7,13.3,26.7,17,34.4c2.7,5.8,7.1,9.8,12.5,9.8   C30.5,44.3,31,43.1,30.3,42.3z"></path><path d="M84.8,40.5c-0.3-1-1.6-1.2-2.1-0.3c-1.6,2.8-6.4,5.2-12.7,4.9c-9.3-0.5-16.8,4.2-11.8,10C64,62,72,60.6,78.5,55   C83.4,50.9,86.1,45.7,84.8,40.5z"></path><path d="M68.9,42.6c9.3,0.5,16.8-4.2,11.8-10c-5.8-6.9-13.8-5.5-20.3,0c-4.9,4.1-7.6,9.3-6.3,14.6c0.3,1,1.6,1.2,2.1,0.3   C57.9,44.7,62.7,42.3,68.9,42.6z"></path><path d="M45.1,58c-0.9-0.6-2,0.2-1.7,1.2c0.8,3.2-1,8.2-5.8,12.3C30.5,77.6,28.4,86.2,36,87c9,0.9,13.8-5.5,14.7-14.1   C51.3,66.6,49.7,60.9,45.1,58z"></path><path d="M35.1,70.6c7.1-6.1,9.2-14.6,1.6-15.4c-9-0.9-13.8,5.5-14.7,14.1c-0.7,6.3,1,12,5.5,14.9c0.9,0.6,2-0.2,1.7-1.2   C28.6,79.7,30.4,74.7,35.1,70.6z"></path></g></svg>