<svg fill="#FFFFFF" xmlns="http://www.w3.org/2000/svg" xmlns:xlink="http://www.w3.org/1999/xlink" version="1.1" x="0px" y="0px" viewBox="0 0 91 91" enable-background="new 0 0 91 91" xml:space="preserve"><g><path d="M23.533,29.056c-0.056,0.023-0.089,0.06-0.136,0.089c-21.658,2.461-35.119,50.869-7.994,49.012   c12.432-0.85,22.164-17.531,24.577-28.274C42.236,39.828,36.552,23.646,23.533,29.056z M7.813,72.778   c-13.411-9.499,1.622-36.71,15.54-41.252c0.246,0.112,4.441-0.39,5.87-0.259c-0.118,0.427-0.079,0.902,0.276,1.325   c6.658,7.957-6.258,13.841-11.242,17.65c-3.908,2.989-7.504,6.572-9.404,11.199C7.752,64.123,6.604,69.32,7.813,72.778z    M32.924,59.185c-3.663,6.599-11.555,17.558-20.662,15.576c-0.095-0.118-0.216-0.224-0.397-0.285   c-7.408-2.6,1.697-16.167,3.889-18.425c2.484-2.56,5.494-4.427,8.418-6.425c2.752-1.88,5.744-3.54,7.678-6.372   c2.431-3.557,2.777-7.547,0.783-11.028C40.622,36.409,36.668,52.435,32.924,59.185z"></path><path d="M49.023,12.741c-0.195-0.059-1.55,0.762-1.659,0.919C29.909,27.892,64.286,65.914,83.521,52.772   c9.913-6.775,8.791-19.733,1.625-27.933C76.269,14.685,62.196,7.039,49.023,12.741z M81.503,50.354   c-0.835-0.898-2.736-0.309-2.211,1.083c0.016,0.039,0.025,0.059,0.039,0.095c-15.691,6.603-39.852-20.294-31.904-34.64   c-0.495,3.196,2.099,6.72,4.965,9.033c4.087,3.294,9.018,5.093,14.027,6.379c3.232,0.827,6.989,1.197,9.842,3.074   c3.464,2.504,5.059,5.752,4.787,9.745c-0.31,1.769-0.129,3.501,0.518,5.191C81.546,50.328,81.524,50.342,81.503,50.354z    M83.609,48.661c0.649-5.354,0.306-10.942-4.198-14.634C75.407,30.746,44.22,24.738,50.2,15.423   c10.163-3.554,19.746-0.118,27.853,6.831C85.644,28.758,92.642,39.743,83.609,48.661z"></path></g></svg>