<svg fill="#FFFFFF" xmlns="http://www.w3.org/2000/svg" xmlns:xlink="http://www.w3.org/1999/xlink" version="1.1" x="0px" y="0px" viewBox="0 0 100 100" style="enable-background:new 0 0 100 100;" xml:space="preserve"><g><path d="M37.6,45.2c3.5-1.7,5.8-4.3,6.9-7.5c1.3-3.8,0.7-8.5-1.7-13.2c-4.5-9-12.1-12.1-19.8-8.3c-3.4,1.7-5.8,4.3-6.9,7.5   c-1.3,3.8-0.7,8.5,1.7,13.2c3.2,6.4,8.1,9.9,13.4,9.9C33.3,46.8,35.5,46.3,37.6,45.2z M20.5,35.5c-2-4-2.5-7.8-1.5-10.9   c0.8-2.5,2.6-4.4,5.4-5.8c1.9-0.9,3.6-1.3,5.1-1.3c5.8,0,9.3,5.5,10.7,8.3c2,4,2.5,7.9,1.5,10.9c-0.8,2.5-2.6,4.4-5.4,5.8   C27.2,47,21.9,38.3,20.5,35.5z"></path><path d="M33.6,40.6c0.3,0.2,0.6,0.4,1,0.4c0.4,0,0.8-0.2,1.1-0.5c0.5-0.6,0.5-1.6-0.2-2.1c0,0-3.3-2.9-3.5-7.5   c-0.3-6-5.1-9.8-5.3-9.9c-0.7-0.5-1.6-0.4-2.1,0.3c-0.5,0.7-0.4,1.6,0.3,2.1c0,0,3.9,3.1,4.1,7.7C29.3,36.8,33.4,40.4,33.6,40.6z"></path><path d="M83.6,35.1c-2.8-8-10.7-11.1-20-7.8c-5,1.7-8.7,4.7-10.5,8.3c-1.5,3.1-1.6,6.5-0.3,10.2c2.1,5.9,6.7,9.1,12.8,9.1   c2.2,0,4.7-0.4,7.2-1.3c5.1-1.8,8.7-4.7,10.5-8.3C84.8,42.2,84.9,38.8,83.6,35.1z M80.6,44c-1.4,2.9-4.5,5.3-8.8,6.8   c-2.9,1-12.8,3.6-16.2-6c-1-2.9-1-5.6,0.2-7.9c1.4-2.9,4.5-5.3,8.8-6.8c1.2-0.4,3.6-1.1,6.2-1.1c3.8,0,8,1.4,10,7.1   C81.8,39,81.7,41.7,80.6,44z"></path><path d="M76.3,36c0,0-3.6,3.5-8.2,3.1c-5.9-0.5-10,3.2-10.2,3.3c-0.6,0.6-0.7,1.5-0.1,2.1c0.3,0.3,0.7,0.5,1.1,0.5   c0.4,0,0.7-0.1,1-0.4c0,0,3.3-2.9,7.9-2.5c6,0.5,10.4-3.8,10.6-4c0.6-0.6,0.6-1.5,0-2.1C77.8,35.4,76.9,35.4,76.3,36z"></path><path d="M42.8,53.5c-8.3-2-15.1,2.9-17.5,12.5c-1.2,5.1-0.8,9.8,1.3,13.3c1.8,2.9,4.6,4.9,8.5,5.8c1.3,0.3,2.5,0.5,3.7,0.5   c6.6,0,11.7-4.7,13.8-13c1.3-5.2,0.8-9.8-1.3-13.3C49.5,56.3,46.6,54.4,42.8,53.5z M49.6,71.8c-0.7,3-3.9,12.7-13.8,10.3   c-3-0.7-5.2-2.2-6.6-4.5c-1.7-2.8-2-6.7-1-11C28.9,64,31.5,56,39.1,56c0.9,0,1.9,0.1,3,0.4c3,0.7,5.3,2.2,6.6,4.5   C50.3,63.6,50.7,67.5,49.6,71.8z"></path><path d="M40.7,58.3c-0.8,0.2-1.3,1-1.2,1.8c0,0,1,4.9-1.8,8.5C34.1,73.3,35,78.7,35,78.9c0.1,0.7,0.8,1.2,1.5,1.2   c0.1,0,0.2,0,0.2,0c0.8-0.1,1.4-0.9,1.2-1.7c0,0-0.7-4.4,2.2-8c3.7-4.7,2.4-10.7,2.4-11C42.3,58.6,41.5,58.1,40.7,58.3z"></path></g></svg>