<?xml version="1.0" encoding="UTF-8"?>
<svg width="74px" height="62px" viewBox="0 0 74 62" version="1.1" xmlns="http://www.w3.org/2000/svg" xmlns:xlink="http://www.w3.org/1999/xlink">
    <!-- Generator: Sketch 43.2 (39069) - http://www.bohemiancoding.com/sketch -->
    <title>burger</title>
    <desc>Created with Sketch.</desc>
    <defs></defs>
    <g id="Page-1" stroke="none" stroke-width="1" fill="none" fill-rule="evenodd">
        <g id="burger" transform="translate(37.000000, 31.000000) scale(-1, 1) translate(-37.000000, -31.000000) " fill-rule="nonzero" fill="#000000">
            <path d="M50.2,7.7 L4.3,7.7 C2.2,7.7 0.5,6 0.5,3.9 L0.5,3.9 C0.5,1.8 2.2,0.1 4.3,0.1 L50.2,0.1 C52.3,0.1 54,1.8 54,3.9 L54,3.9 C54,6 52.3,7.7 50.2,7.7 Z" id="Shape"></path>
            <path d="M70,34.7 L4.3,34.7 C2.2,34.7 0.5,33 0.5,30.9 L0.5,30.9 C0.5,28.8 2.2,27.1 4.3,27.1 L70,27.1 C72.1,27.1 73.8,28.8 73.8,30.9 L73.8,30.9 C73.8,33 72.1,34.7 70,34.7 Z" id="Shape"></path>
            <path d="M50.2,61.7 L4.3,61.7 C2.2,61.7 0.5,60 0.5,57.9 L0.5,57.9 C0.5,55.8 2.2,54.1 4.3,54.1 L50.2,54.1 C52.3,54.1 54,55.8 54,57.9 L54,57.9 C54,60 52.3,61.7 50.2,61.7 Z" id="Shape"></path>
        </g>
    </g>
</svg>