<?xml version="1.0" encoding="UTF-8"?>
<svg fill="#FFFFFF" width="100pt" height="100pt" version="1.1" viewBox="0 0 100 100" xmlns="http://www.w3.org/2000/svg">
 <g fill-rule="evenodd">
  <path d="m49.656 7c-23.695 0-42.656 19.426-42.656 43 0 23.734 19.102 43 42.656 43h0.6875c23.543 0 42.656-19.266 42.656-43 0-23.324-18.727-43-42.656-43-0.097656 0-0.21094-0.007812-0.34375 0-0.13281-0.007812-0.25391 0-0.34375 0zm-0.65625 2.0312v5.1562c-0.003906 0.26953 0.10156 0.52734 0.28906 0.71875s0.44141 0.29688 0.71094 0.29688 0.52344-0.10547 0.71094-0.29688 0.29297-0.44922 0.28906-0.71875v-5.1562c6.7617 0.10547 13.047 1.8477 18.562 4.8438l-2.625 4.5938c-0.20703 0.46875-0.03125 1.0156 0.41016 1.2734 0.44141 0.25781 1.0039 0.14062 1.3086-0.27344l2.625-4.625c5.5938 3.3984 10.258 8.1172 13.656 13.688l-4.625 2.6875c-0.25781 0.11719-0.45703 0.33594-0.54688 0.60938-0.085937 0.26953-0.054687 0.5625 0.089844 0.80859 0.14062 0.24609 0.38281 0.41797 0.66016 0.47656 0.27734 0.058594 0.56641-0.003906 0.79688-0.17578l4.6562-2.6875c3.0625 5.6133 4.8359 12.02 5 18.75h-5.375c-0.26953-0.003906-0.52734 0.10156-0.71484 0.28906-0.19141 0.1875-0.30078 0.44531-0.30078 0.71094 0 0.26953 0.10938 0.52734 0.30078 0.71484 0.1875 0.1875 0.44531 0.28906 0.71484 0.28516h5.375c-0.16016 6.7852-1.9258 13.168-4.9688 18.75l-4.6875-2.7188c-0.14453-0.078125-0.30469-0.12109-0.46875-0.125-0.46484-0.019531-0.88281 0.28125-1.0117 0.72656-0.125 0.44922 0.074219 0.92578 0.48047 1.1484l4.6562 2.7188c-3.4102 5.582-8.1211 10.242-13.688 13.625l-2.625-4.5938c-0.17578-0.33203-0.52734-0.53906-0.90625-0.53125-0.35938 0.015625-0.67969 0.21484-0.84766 0.53125-0.16797 0.31641-0.15625 0.69922 0.035156 1l2.6562 4.5938c-5.5508 3.0156-11.871 4.7344-18.594 4.8438v-5.1562c0-0.26953-0.10938-0.52734-0.30469-0.71484-0.19531-0.19141-0.45703-0.29297-0.72656-0.28516-0.53906 0.019531-0.96875 0.46094-0.96875 1v5.1562c-6.7109-0.10547-13.051-1.8125-18.594-4.8125l2.6562-4.625c0.19531-0.3125 0.20312-0.70703 0.019531-1.0273-0.17969-0.32031-0.52734-0.51172-0.89453-0.50391-0.36719 0.003906-0.70312 0.20703-0.875 0.53125l-2.625 4.5938c-5.5703-3.3828-10.277-8.043-13.688-13.625l4.6562-2.7188c0.39062-0.21484 0.59375-0.66406 0.49219-1.1016-0.10156-0.4375-0.48047-0.75-0.92969-0.77344-0.19531-0.011719-0.39062 0.03125-0.5625 0.125l-4.6562 2.7188c-3.043-5.582-4.8398-11.965-5-18.75h5.375c0.26953 0.003906 0.52734-0.097656 0.71484-0.28516 0.19141-0.1875 0.30078-0.44531 0.30078-0.71484 0-0.26562-0.10938-0.52344-0.30078-0.71094-0.1875-0.1875-0.44531-0.29297-0.71484-0.28906h-5.375c0.16016-6.7656 1.9805-13.125 5.0312-18.719l4.625 2.6562c0.23047 0.17188 0.51953 0.23438 0.79688 0.17578 0.27734-0.058593 0.51953-0.23047 0.66016-0.47656 0.14453-0.24609 0.17578-0.53906 0.089844-0.80859-0.089844-0.27344-0.28906-0.49219-0.54688-0.60938l-4.625-2.6875c3.4023-5.5703 8.0859-10.266 13.656-13.656l2.625 4.5938c0.27734 0.48438 0.89062 0.65234 1.375 0.375 0.23047-0.12891 0.40234-0.35156 0.47266-0.60938 0.070313-0.25781 0.035156-0.53125-0.097656-0.76562l-2.6562-4.625c5.5352-2.9961 11.863-4.7031 18.594-4.8125z"/>
  <path d="m50 42.625c-2.293 0-4.1875 1.8828-4.1875 4.1875 0 1.9453 1.3477 3.5742 3.1562 4.0312v26.688c-0.003906 0.26953 0.10156 0.52734 0.28906 0.71875 0.1875 0.1875 0.44141 0.29688 0.71094 0.29688s0.52344-0.10938 0.71094-0.29688c0.1875-0.19141 0.29297-0.44922 0.28906-0.71875v-26.656c0.56641-0.13672 1.082-0.40625 1.5312-0.75l12.688 10.156c0.20703 0.16797 0.47266 0.24219 0.73438 0.21484 0.26562-0.03125 0.50781-0.16406 0.67188-0.37109 0.16797-0.20703 0.24219-0.47266 0.21484-0.73438-0.03125-0.26562-0.16406-0.50391-0.37109-0.67188l-12.688-10.156c0.25-0.53516 0.40625-1.1211 0.40625-1.75 0-2.3047-1.8555-4.1875-4.1562-4.1875zm0 2c1.2148 0 2.1562 0.95703 2.1562 2.1875 0 0.46875-0.15234 0.89062-0.40625 1.25-0.078125 0.082031-0.14062 0.17969-0.1875 0.28125-0.37891 0.40234-0.90234 0.64062-1.5 0.65625h-0.09375v-0.03125c-0.019531 0.011719-0.042969 0.019531-0.0625 0.03125h-0.03125-0.125c-1.0938-0.10938-1.9375-1.043-1.9375-2.1875 0-1.2305 0.98828-2.1875 2.1875-2.1875z"/>
 </g>
</svg>
