<svg fill="#FFFFFF" xmlns="http://www.w3.org/2000/svg" xmlns:xlink="http://www.w3.org/1999/xlink" xml:space="preserve" version="1.1" style="shape-rendering:geometricPrecision;text-rendering:geometricPrecision;image-rendering:optimizeQuality;" viewBox="0 0 333 333" x="0px" y="0px" fill-rule="evenodd" clip-rule="evenodd"><defs><style type="text/css">
   
    .fil0 {fill:#FFFFFF;fill-rule:nonzero}
   
  </style></defs><g><path class="fil0" d="M260 116l-132 132c0,0 -1,0 -1,1l-58 20c-3,1 -5,-2 -4,-5l20 -58c0,0 0,0 1,-1l131 -131c28,-28 71,14 43,42zm-136 104l74 -74c3,-3 8,2 5,5l-74 74 0 12 108 -108 -32 -33 -109 109 12 0 74 -75c4,-3 9,2 5,5l-74 75 0 10 11 0zm-44 22l11 12 31 -11 0 -16 -12 0c-2,0 -4,-1 -4,-3l0 -12 -16 0 -10 30zm142 -163l32 33c23,-23 -10,-55 -32,-33z"></path></g></svg>