<svg fill="#FFFFFF" xmlns="http://www.w3.org/2000/svg" data-name="Layer 1" viewBox="0 0 100 100" x="0px" y="0px"><title>144all</title><path d="M50,6A44,44,0,1,0,94,50,44,44,0,0,0,50,6ZM85.11,27,71.9,40.19a24.13,24.13,0,0,0-13-12.47L72.24,14.39A42.32,42.32,0,0,1,85.11,27ZM50,72A22,22,0,1,1,72,50,22,22,0,0,1,50,72ZM70.46,13.34,56.81,27a23.94,23.94,0,0,0-14.12.15L29.13,13.58a41.86,41.86,0,0,1,41.33-.23Zm-43.09,1.3L40.63,27.9A24.14,24.14,0,0,0,27.9,40.63L14.64,27.37A42.32,42.32,0,0,1,27.37,14.64ZM13.58,29.13,27.14,42.7A23.94,23.94,0,0,0,27,56.81L13.34,70.46a41.86,41.86,0,0,1,.23-41.33Zm.82,43.11L27.72,58.91a24.13,24.13,0,0,0,12.47,13L27,85.11A42.32,42.32,0,0,1,14.39,72.24Zm14.33,14L42.22,72.7a23.93,23.93,0,0,0,15.09.16L70.87,86.43a41.86,41.86,0,0,1-42.14-.23Zm43.9-.84L59.37,72.1A24.14,24.14,0,0,0,72.1,59.37L85.36,72.63A42.32,42.32,0,0,1,72.63,85.36Zm13.8-14.49L72.86,57.3a23.93,23.93,0,0,0-.16-15.09L86.19,28.72a41.86,41.86,0,0,1,.23,42.14Z"></path></svg>