<svg fill="#FFFFFF" xmlns="http://www.w3.org/2000/svg" xmlns:xlink="http://www.w3.org/1999/xlink" version="1.1" x="0px" y="0px" viewBox="0 0 100 100" style="enable-background:new 0 0 100 100;" xml:space="preserve"><style type="text/css">
	.st0{fill:#FFFFFF;}
</style><path class="st0" d="M89.9,46.2c0-0.1,0-0.1,0-0.2c0-0.1,0-0.1,0-0.2c0,0,0,0,0-0.1s0,0,0-0.1c0-0.1,0-0.1,0-0.2c0-0.1,0-0.1,0-0.2  c0,0,0-0.1,0-0.1c0-0.1-0.1-0.1-0.1-0.2c0,0,0-0.1,0-0.1c0,0,0,0,0,0c0,0,0-0.1-0.1-0.1c0,0,0,0,0,0l-11-9.3  c-0.5-0.4-1.3-0.4-1.7,0.1c-0.4,0.5-0.4,1.3,0.1,1.7l8.5,7.1H69.4V19.4c0-2.6-2.1-4.7-4.7-4.7H15.5c-0.1,0-0.1,0-0.2,0  c-0.9,0-1.8,0.3-2.5,0.8c-1.2,0.9-2,2.3-2,3.8v53.4c0,2,1.2,3.7,3.1,4.4l26.4,9.5c0.5,0.2,1.1,0.3,1.6,0.3c1,0,1.9-0.3,2.7-0.9  c1.2-0.9,2-2.3,2-3.8V77h18.1c2.6,0,4.7-2.1,4.7-4.7V47h16.1l-8.5,7.1c-0.5,0.4-0.6,1.2-0.1,1.7c0.2,0.3,0.6,0.4,0.9,0.4  c0.3,0,0.5-0.1,0.8-0.3l11-9.3c0,0,0,0,0,0c0,0,0-0.1,0.1-0.1c0,0,0,0,0,0c0,0,0-0.1,0-0.1C89.8,46.4,89.9,46.4,89.9,46.2  C89.9,46.3,89.9,46.2,89.9,46.2z M44.2,82.2c0,0.8-0.4,1.4-1,1.9c-0.6,0.4-1.4,0.5-2.1,0.3c0,0,0,0,0,0l-26.4-9.5  c-0.9-0.3-1.5-1.2-1.5-2.2V19.3c0-0.8,0.4-1.4,1-1.9c0.4-0.3,0.8-0.4,1.3-0.4c0.3,0,0.5,0,0.8,0.1l26.4,9.5c0.9,0.3,1.5,1.2,1.5,2.2  V82.2z M67,72.2c0,1.3-1,2.3-2.3,2.3H46.6V28.8c0-2-1.2-3.7-3.1-4.4L23,17h41.7c1.3,0,2.3,1,2.3,2.3v25.2H55.3  c-0.7,0-1.2,0.5-1.2,1.2c0,0.7,0.5,1.2,1.2,1.2H67V72.2z"></path></svg>