<svg fill="#FFFFFF" xmlns="http://www.w3.org/2000/svg" xmlns:xlink="http://www.w3.org/1999/xlink" version="1.1" x="0px" y="0px" viewBox="0 0 100 100" style="enable-background:new 0 0 100 100;" xml:space="preserve"><g><path d="M49.8,39.3c-3.7,0-6.6,3-6.6,6.6s3,6.6,6.6,6.6s6.6-3,6.6-6.6S53.5,39.3,49.8,39.3z M49.8,50.5c-2.5,0-4.6-2.1-4.6-4.6   s2.1-4.6,4.6-4.6s4.6,2.1,4.6,4.6S52.4,50.5,49.8,50.5z"></path><path d="M62.4,74.3h-9.6c5.6-4.3,18.7-15.8,18.7-28c0-12-9.7-21.7-21.7-21.7s-21.7,9.7-21.7,21.7c0,11.9,13.2,23.6,18.7,28h-9.6   c-0.6,0-1,0.4-1,1s0.4,1,1,1h25.2c0.6,0,1-0.4,1-1S63,74.3,62.4,74.3z M30.1,46.3c0-10.9,8.8-19.7,19.7-19.7s19.7,8.8,19.7,19.7   c0,12.8-16.4,25.4-19.7,27.8C46.5,71.6,30.1,58.6,30.1,46.3z"></path></g></svg>