<svg fill="#FFFFFF" xmlns:dc="http://purl.org/dc/elements/1.1/" xmlns:cc="http://creativecommons.org/ns#" xmlns:rdf="http://www.w3.org/1999/02/22-rdf-syntax-ns#" xmlns:svg="http://www.w3.org/2000/svg" xmlns="http://www.w3.org/2000/svg" xmlns:sodipodi="http://sodipodi.sourceforge.net/DTD/sodipodi-0.dtd" xmlns:inkscape="http://www.inkscape.org/namespaces/inkscape" version="1.1" x="0px" y="0px" viewBox="0 0 100 100"><g transform="translate(0,-952.36218)"><path style="color:#000000;enable-background:accumulate;" d="m 58.00001,972.36219 c 0,-4.4182 -3.5818,-8 -8.00002,-8 -4.4183,0 -8,3.5818 -8,8 0,4.4183 3.5817,8 8,8 4.41822,0 8.00002,-3.5817 8.00002,-8 z m 0,30.00001 c 0,-4.41821 -3.5818,-8.00001 -8.00002,-8.00001 -4.4183,0 -8,3.5818 -8,8.00001 0,4.4183 3.5817,8 8,8 4.41822,0 8.00002,-3.5817 8.00002,-8 z m 0,30 c 0,-4.4182 -3.5818,-8 -8.00002,-8 -4.4183,0 -8,3.5818 -8,8 0,4.4183 3.5817,8 8,8 4.41822,0 8.00002,-3.5817 8.00002,-8 z" fill="#FFFFFF" stroke="none" marker="none" visibility="visible" display="inline" overflow="visible"></path></g></svg>