<svg fill="#FFFFFF" xmlns="http://www.w3.org/2000/svg" data-name="Layer 1" viewBox="0 0 100 100" x="0px" y="0px"><title>54 all</title><path d="M73.67,24.3A28.1,28.1,0,0,0,24.59,51.44a26.61,26.61,0,0,0,1.91,3.31L48.64,87.93a1.63,1.63,0,0,0,2.71,0l22-33a28.4,28.4,0,0,0,2.19-3.8A27.89,27.89,0,0,0,73.67,24.3Zm-.86,25.61a25.47,25.47,0,0,1-2,3.4L50,84.56,29,53.08a23.44,23.44,0,0,1-1.7-2.93,25.1,25.1,0,1,1,45.52-.24Z"></path><path d="M50,29.88a9.54,9.54,0,1,0,9.54,9.54A9.55,9.55,0,0,0,50,29.88Zm0,16.07a6.54,6.54,0,1,1,6.54-6.54A6.54,6.54,0,0,1,50,45.95Z"></path></svg>