<svg fill="#FFFFFF" xmlns="http://www.w3.org/2000/svg" xmlns:xlink="http://www.w3.org/1999/xlink" version="1.1" x="0px" y="0px" viewBox="0 0 64 64" enable-background="new 0 0 64 64" xml:space="preserve"><path display="none" fill="#FFFFFF" stroke="#FFFFFF" stroke-width="2" stroke-miterlimit="10" d="M46.97,40.61  C46.56,50.36,42.05,62.15,24,62.15C5,62.15,1,49.1,1,39.1V38.94c4.55,3.279,8.09,7.989,13,7.89C22.33,46.67,28.42,38,39.5,38  C42.91,38,45.16,39.11,46.97,40.61z"></path><path d="M11.58,45.439c0-0.01,0-0.01,0-0.01c-0.52-0.18-1.09,0.101-1.27,0.62c-0.19,0.52,0.09,1.09,0.61,1.27  c0.11,0.04,0.22,0.061,0.33,0.061c0.42,0,0.8-0.26,0.95-0.67C12.38,46.189,12.1,45.62,11.58,45.439z M63.965,36.558  c-0.263-1.13-6.711-14.845-8.738-19.144c-0.313-1.096-0.091-2.775,0.088-4.129c0.23-1.745,0.397-3.005-0.275-3.755  c-1.24-1.4-8.035-1.658-9.695-0.896c-1.122,0.514-5.156,3.343-7.748,5.191c0.404-2.096,0.592-4.95-0.889-6.43  c-0.931-0.931-2.11-1.365-3.712-1.365c-1.079,0-2.261,0.196-3.512,0.403c-1.438,0.239-3.068,0.509-4.772,0.509  c-1.567,0-3.005-0.225-4.394-0.688c-0.808-0.27-2.16-1.02-3.591-1.813c-3.078-1.708-6.565-3.643-9.184-3.643  c-0.82,0-1.526,0.193-2.096,0.573c-1.093,0.729-1.932,1.994-1.34,3.178C4.454,5.246,5.196,6.1,6.136,7.18  c2.031,2.337,4.792,5.52,4.903,8.625C11.026,15.871,11,15.931,11,16c0,1.796-3.136,2.963-4.235,3.23C6.317,19.34,6,19.741,6,20.203  v2.931l-0.183,0.211c-3.309,3.814-5.302,8.619-5.727,13.705L0,36.984v2.117c0,8.982,3.118,24.051,24,24.051  c18.477,0,23.043-11.808,23.851-20.757c0.011-0.112,0.02-0.223,0.028-0.334c0.013-0.151,0.024-0.302,0.035-0.451  c0.016-0.229,0.028-0.454,0.04-0.677c0.002-0.045,0.005-0.09,0.007-0.135c0.002-0.048,0.006-0.099,0.008-0.146l0.021-0.495  l-0.006-0.005C47.993,39.786,48,39.425,48,39.076c0-5.82-2.065-11.407-5.816-15.731L42,23.134v-2.593  c0.563-0.775,1.403-1.231,2.366-1.232h0.004c1.345,0,2.66,0.83,3.518,2.217c0.857,1.399,1.039,2.689,1.2,3.828  c0.202,1.435,0.411,2.919,2.037,3.75c1.751,0.895,1.797,2.153,1.67,3.832c-0.061,0.795-0.117,1.546,0.331,2.108  c3.18,4.02,5.597,5.168,7.32,5.168c0.61,0,1.133-0.144,1.572-0.355C63.456,39.164,64.197,37.563,63.965,36.558z M7.645,5.868  C6.866,4.972,6.13,4.125,5.911,3.735c0.016-0.108,0.245-0.435,0.644-0.701c0.236-0.158,0.568-0.237,0.987-0.237  c2.101,0,5.49,1.881,8.213,3.392c1.58,0.876,2.945,1.634,3.929,1.962c1.597,0.532,3.241,0.791,5.027,0.791  c1.87,0,3.585-0.285,5.1-0.536c1.218-0.202,2.271-0.376,3.185-0.376c1.051,0,1.759,0.24,2.298,0.779  c0.969,0.969,0.601,3.989-0.029,6.191h-22.28C12.52,11.476,9.73,8.267,7.645,5.868z M8,20.949c1.385-0.46,4.203-1.66,4.861-3.949  H35.14c0.229,0.796,0.727,1.453,1.327,2H18c-0.552,0-1,0.448-1,1s0.448,1,1,1h22v2H8V20.949z M45.983,38.693  C44.075,37.549,41.974,37,39.5,37c-6.24,0-11.002,2.657-15.205,5.001c-3.138,1.75-6.102,3.403-9.275,3.755  c-0.549,0.061-0.945,0.556-0.884,1.104c0.061,0.55,0.569,0.942,1.104,0.884c3.575-0.396,6.71-2.146,10.03-3.997  C29.454,41.413,33.78,39,39.5,39c2.56,0,4.567,0.642,6.44,2.069c-0.43,7.446-3.526,17.699-16.929,19.726  c-0.028,0.005-0.055,0.009-0.083,0.013c-0.417,0.063-0.848,0.112-1.285,0.157c-0.119,0.013-0.235,0.027-0.355,0.038  c-0.351,0.032-0.714,0.055-1.078,0.076c-0.192,0.012-0.379,0.027-0.575,0.036c-0.315,0.014-0.644,0.017-0.969,0.021  C24.444,61.141,24.228,61.15,24,61.15c-0.396,0-0.777-0.013-1.16-0.024c-0.158-0.005-0.323-0.004-0.479-0.011  c-0.323-0.015-0.632-0.04-0.945-0.063c-0.218-0.016-0.441-0.026-0.654-0.046c-0.292-0.026-0.573-0.063-0.857-0.097  c-0.22-0.026-0.443-0.05-0.658-0.08c-0.272-0.039-0.535-0.085-0.798-0.13c-0.213-0.036-0.427-0.071-0.634-0.112  c-0.254-0.05-0.501-0.105-0.747-0.161c-0.204-0.047-0.408-0.093-0.606-0.144c-0.238-0.061-0.471-0.125-0.702-0.191  c-0.193-0.056-0.386-0.112-0.574-0.172c-0.224-0.07-0.443-0.144-0.66-0.22c-0.183-0.064-0.362-0.131-0.54-0.199  c-0.21-0.08-0.417-0.162-0.621-0.248c-0.171-0.072-0.338-0.147-0.505-0.223c-0.197-0.09-0.393-0.18-0.583-0.274  c-0.161-0.08-0.316-0.163-0.472-0.246c-0.185-0.099-0.37-0.197-0.548-0.3c-0.147-0.086-0.29-0.175-0.433-0.264  c-0.175-0.108-0.352-0.216-0.521-0.328c-0.134-0.089-0.26-0.183-0.39-0.274c-0.167-0.118-0.337-0.234-0.497-0.357  c-0.116-0.088-0.224-0.182-0.336-0.271c-0.595-0.479-1.142-0.987-1.644-1.519c-0.092-0.098-0.188-0.192-0.276-0.291  c-0.128-0.143-0.248-0.289-0.37-0.434c-0.094-0.112-0.19-0.223-0.28-0.335c-0.114-0.144-0.222-0.29-0.331-0.436  C6.091,53.582,6,53.463,5.915,53.342c-0.104-0.146-0.202-0.295-0.3-0.444c-0.082-0.123-0.164-0.247-0.243-0.372  c-0.094-0.149-0.183-0.3-0.272-0.451c-0.075-0.128-0.149-0.256-0.221-0.385c-0.084-0.152-0.166-0.305-0.246-0.458  c-0.068-0.132-0.135-0.263-0.2-0.396c-0.075-0.153-0.149-0.308-0.22-0.462c-0.062-0.135-0.121-0.27-0.18-0.404  c-0.067-0.155-0.133-0.31-0.196-0.466c-0.055-0.137-0.108-0.273-0.16-0.411c-0.059-0.155-0.118-0.312-0.173-0.467  c-0.049-0.139-0.095-0.277-0.141-0.416c-0.052-0.156-0.104-0.312-0.153-0.468c-0.043-0.141-0.083-0.281-0.124-0.422  c-0.044-0.154-0.091-0.31-0.132-0.465c-0.039-0.144-0.073-0.288-0.108-0.433c-0.038-0.15-0.077-0.301-0.111-0.451  C2.7,45.817,2.669,45.664,2.637,45.51c-0.056-0.269-0.108-0.536-0.156-0.803c-0.028-0.155-0.057-0.312-0.082-0.466  c-0.022-0.138-0.041-0.273-0.061-0.41c-0.022-0.153-0.046-0.308-0.066-0.46c-0.018-0.135-0.033-0.269-0.048-0.403  c-0.018-0.151-0.036-0.303-0.051-0.452c-0.014-0.132-0.024-0.262-0.036-0.392c-0.014-0.15-0.027-0.302-0.039-0.45  c-0.01-0.127-0.018-0.252-0.026-0.378c-0.006-0.092-0.011-0.184-0.016-0.275c0.638,0.521,1.262,1.059,1.875,1.585  c1.13,0.972,2.198,1.89,3.324,2.705c0.448,0.323,1.073,0.224,1.396-0.225c0.324-0.447,0.224-1.072-0.224-1.396  c-1.058-0.766-2.095-1.656-3.192-2.601c-1.022-0.88-2.087-1.775-3.207-2.616C2.165,33.5,3.917,28.752,7.036,25h33.929  C44.136,28.814,45.897,33.646,45.983,38.693z M60.993,38.119c-0.682,0.228-2.638,0.281-6.235-4.237  c-0.017-0.164,0.011-0.524,0.031-0.796c0.11-1.466,0.317-4.194-2.754-5.764c-0.646-0.33-0.766-0.82-0.967-2.248  c-0.179-1.266-0.401-2.841-1.478-4.597c-1.227-1.984-3.178-3.168-5.221-3.168h-0.006c-1.467,0.001-2.776,0.613-3.709,1.692h-0.181  c-1.164-0.407-2.869-1.231-3.346-2.38c3.277-2.364,8.034-5.704,9.047-6.168c1.191-0.544,6.41-0.128,7.323,0.38  c0.073,0.377-0.064,1.417-0.167,2.191c-0.219,1.656-0.467,3.533,0.003,5.046c0.014,0.044,0.031,0.088,0.051,0.13  c3.193,6.768,8.36,17.864,8.621,18.747C62.006,37.114,61.737,37.863,60.993,38.119z M14,29h-4c-0.552,0-1,0.448-1,1s0.448,1,1,1h4  c0.552,0,1-0.448,1-1S14.552,29,14,29z M14,37h-4c-0.552,0-1,0.447-1,1s0.448,1,1,1h4c0.552,0,1-0.447,1-1S14.552,37,14,37z M14,33  h-2c-0.552,0-1,0.447-1,1s0.448,1,1,1h2c0.552,0,1-0.447,1-1S14.552,33,14,33z M14,41h-2c-0.552,0-1,0.447-1,1s0.448,1,1,1h2  c0.552,0,1-0.447,1-1S14.552,41,14,41z"></path></svg>