<svg xmlns="http://www.w3.org/2000/svg" xmlns:xlink="http://www.w3.org/1999/xlink" version="1.1" x="0px" y="0px" viewBox="0 0 110 101" enable-background="new 0 0 110 101" xml:space="preserve"><g><path d="M-269.739,173.639c8.986,0,21.164-0.904,21.288-0.914c0.452-0.033,0.79-0.426,0.756-0.878   c-0.034-0.45-0.426-0.79-0.878-0.755c-0.126,0.009-12.727,0.944-21.687,0.907c-8.521-0.034-21.298-0.899-21.426-0.908   c-0.45-0.028-0.842,0.311-0.873,0.762c-0.031,0.451,0.311,0.842,0.762,0.873c0.128,0.009,12.958,0.877,21.531,0.911   C-270.092,173.638-269.916,173.639-269.739,173.639z"></path><path d="M-264.438,152.705c0,1.031-0.984,1.866-2.199,1.866h-6.977c-1.214,0-2.2-0.835-2.2-1.866l0,0c0-1.03,0.985-1.865,2.2-1.865   h6.977C-265.423,150.84-264.438,151.675-264.438,152.705L-264.438,152.705z"></path><path d="M-292.542,168.688c0.183-0.714,1.998-1.201,1.998-1.201s1.943-0.664,3.505-2.312c5.302-5.598,10.557-7.372,12.013-7.827   c1.457-0.456,1.639-1.911,1.639-1.911h0.03l0,0l3.193,0.041l3.193-0.041l0,0h0.03c0,0,0.182,1.455,1.638,1.911   c1.457,0.455,6.712,2.229,12.014,7.827c1.562,1.648,3.505,2.312,3.505,2.312s1.973,0.527,2.016,1.291h0   c0.014,0.051,0.024,0.104,0.028,0.158c0.034,0.45-0.305,0.844-0.755,0.877c-0.125,0.01-12.303,0.914-21.289,0.914   c-0.177,0-0.354-0.001-0.528-0.002c-8.573-0.035-21.402-0.902-21.531-0.911c-0.451-0.031-0.792-0.421-0.762-0.874   C-292.598,168.851-292.574,168.767-292.542,168.688z"></path><path d="M-290.741,178.188v-4.186c0,0,10.766,0.847,19.517,0.908c0.205,0,0.416,0,0.64,0.002c0.181,0,0.364,0.001,0.548,0.002   c0.184-0.001,0.367-0.002,0.549-0.002c0.223-0.002,0.434-0.002,0.639-0.002c8.75-0.062,19.517-0.908,19.517-0.908v4.186   c0,0,0.093,1.548-1.499,1.912c-1.313,0.3-7.728,0.811-15.007,1.011c-0.75,0.065-1.927,0.092-3.698,0.081   c-0.167-0.002-0.334-0.002-0.501-0.004c-0.167,0.002-0.334,0.002-0.501,0.004c-1.771,0.011-2.947-0.016-3.698-0.081   c-7.279-0.2-13.694-0.711-15.007-1.011C-290.835,179.735-290.741,178.188-290.741,178.188z"></path><path d="M-322.264,172.91c0,0,0.182-0.729,3.641,0.909c3.06,1.45,11.603,5.278,12.923,13.651   c1.946,12.345,1.864,13.359,2.275,16.291c0.312,2.225,1.484,5.489,10.102,7.19c2.365,0.467,2.73,6.917,2.73,6.917   s0.82,6.097-3.094,10.011c-1.729,1.729-10.739-3.275-10.739-3.275s-7.645-3.642-7.645-15.108c0-11.468,0.182-16.564,0.182-16.564   l-0.364-4.004c0,0-0.365-6.371-7.281-8.684c-0.917-0.307-1.568-0.331-2.023-0.309c-1.436,0.072-1.459-0.211-1.167-0.383   c0.835-0.49,0.717-2.121,0.54-2.502C-322.924,175.463-322.872,175.139-322.264,172.91z"></path><g><path d="M-295.473,234.706c0,0-2.652,13.733,20.695,15.766c0.948,0.138,2.143,0.253,3.513,0.252c0.432,0,0.856-0.005,1.274-0.012    c0.419,0.007,0.842,0.012,1.274,0.012c1.37,0.001,2.565-0.114,3.513-0.252c23.347-2.032,20.696-15.766,20.696-15.766l-0.372-4.923    l0.034,0.042c0.483-0.397,11.902-9.835,19.078-20.069c7.153-10.199,6.363-17.603,6.226-18.544    c-0.404-3.659-3.568-10.532-12.733-10.702c-7.207-0.136-12.864,3.569-15.868,6.091l-0.188-2.497c0,0-0.177-3.246-1.092-3.041    c-4.242,0.957-14.077,1.188-20.568,1.231c-6.491-0.043-16.327-0.274-20.568-1.231c-0.916-0.205-1.092,3.041-1.092,3.041    l-1.923,25.461c0.167,0.035,0.332,0.07,0.504,0.105c1.553,0.306,2.624,1.817,3.273,4.62c0.375,1.618,0.488,3.162,0.507,3.456    c0.082,0.683,0.697,6.89-3.473,11.058c-0.495,0.495-1.205,0.747-2.109,0.747c-0.069,0-0.14-0.004-0.211-0.008L-295.473,234.706z     M-247.768,191.543c2.728-2.328,9.106-6.941,15.124-6.941c0.098,0,0.196,0,0.295,0.002c3.301,0.062,5.758,1.234,7.302,3.486    c1.212,1.768,1.438,3.593,1.44,3.611l0.018,0.129c0.007,0.045,0.907,6.394-5.531,15.574c-5.031,7.175-12.479,14.133-16.138,17.371    L-247.768,191.543z"></path><path d="M-290.592,217.869c0,0,0.82,6.097-3.094,10.011c-0.255,0.254-0.667,0.363-1.186,0.363c-0.037,0-0.075-0.003-0.113-0.005    l1.312-17.359c0.117,0.024,0.23,0.049,0.351,0.073C-290.957,211.419-290.592,217.869-290.592,217.869z"></path></g></g><path d="M66.076,8.478l-2.827,8.955c0,0-0.472,2.357,1.414,4.871c1.886,2.515,6.442-1.414,6.442-1.414s6.442-1.099,10.369,6.599  c3.928,7.699,15.24,31.736,15.24,31.736s2.2,1.571,5.34,0c3.144-1.57,3.144-2.355,3.144-2.984c0-0.63-11.783-25.295-11.783-25.295  l-5.656-11.47c0,0-2.042-5.184-4.556-5.184s-4.248-7.395-4.248-7.395s-1.093-2.661-4.237-1.719  C71.575,6.121,66.076,8.478,66.076,8.478z"></path><path d="M80.719,65.331l-10.6-28.791c0,0-1.568-3.729-3.871-2.655c-7.548,3.515-23.027,3.28-23.027,3.28h-0.006h-0.588h-0.007  c0,0-15.479,0.234-23.027-3.28c-2.303-1.073-3.871,2.655-3.871,2.655l-10.6,28.791c0,0-2.457,10.479,6.223,19.158  C19.601,92.744,33.04,95.518,38.7,95.91l-0.002,0.041c0,0,1.014,0.077,3.297,0.072c0.286,0.001,0.595,0,0.926-0.002  c0.331,0.002,0.639,0.003,0.924,0.002c2.286,0.005,3.299-0.072,3.299-0.072l-0.003-0.041c5.662-0.393,19.1-3.166,27.355-11.421  C83.176,75.811,80.719,65.331,80.719,65.331z M42.903,73.517c-25.12,0.145-36.279-6.911-36.279-6.911l10.871-29.23  c0,0,0.901-1.762,2.208-1.243c6.878,2.734,21.076,3.098,23.201,3.137c2.122-0.04,16.321-0.403,23.198-3.137  c1.307-0.519,2.208,1.243,2.208,1.243l10.871,29.23C79.18,66.605,68.022,73.661,42.903,73.517z"></path><path d="M76.922,65.43c-4.203-1.188-17.707-3.603-33.715-3.603c-0.094,0-0.184,0.002-0.277,0.002c-0.092,0-0.182-0.002-0.275-0.002  c-16.01,0-29.512,2.415-33.715,3.603c-0.884,0.249-0.945,0.893-0.176,1.227c3.992,1.729,17.651,5.941,33.891,5.942  c0.093,0,0.184-0.002,0.275-0.003c0.093,0.001,0.183,0.003,0.277,0.003c16.237-0.001,29.897-4.214,33.889-5.942  C77.865,66.322,77.803,65.679,76.922,65.43z"></path><path d="M61.99,20.732c-1.255-2.671,0.315-5.185,0.315-5.185l1.69-5.635c0,0,0.254-2.409-1.042-2.655  c-2.63-0.501-8.909-1.242-22.802-1.137c-14.678,0.111-24.545,2.544-29.075,3.895c-1.167,0.349-0.933,1.133-0.933,1.133  s0.21,0.692,1.114,1.228c2.265,1.344,5.662,2.752,7.84,4.114c3.771,2.356,2.358,6.128,2.358,6.128l-2.34,8.666l0.32,0.274  c1.93,1.662,5.459,2.732,11.28,3.451c4.779,0.59,9.355,0.653,11.102,0.653c0.424,0,0.664-0.003,0.667-0.003l0.015-0.001h0.01h0.008  l0.01,0.001c0.002,0,0.248,0.003,0.683,0.003c1.791,0,6.481-0.063,11.364-0.653c5.948-0.721,9.544-1.789,11.473-3.451l0.403-0.347  C65.31,27.556,62.991,22.856,61.99,20.732z M40.53,10.346c-2.906,0-5.651-0.023-8.083-0.062c-5.905-0.098-16.155,0.294-16.155,0.062  c0-0.226,10.083-1.522,15.717-2.143C34.685,7.909,38.204,8,41.223,7.965c9.926-0.113,19.506,0.291,19.506,1.257  C60.729,10.687,50.495,10.346,40.53,10.346z"></path><circle cx="38.523" cy="48.024" r="1.704"></circle><circle cx="41.086" cy="53.137" r="1.326"></circle><circle cx="42.457" cy="44.522" r="0.853"></circle></svg>