<svg xmlns="http://www.w3.org/2000/svg" xmlns:xlink="http://www.w3.org/1999/xlink" version="1.1" x="0px" y="0px" viewBox="0 0 100 100" style="enable-background:new 0 0 100 100;" xml:space="preserve"><g><path d="M65.9,77.8H32.6c-0.7,0-1.2,0.6-1.2,1.2c0,0.7,0.6,1.2,1.2,1.2h33.3c0.7,0,1.2-0.6,1.2-1.2C67.1,78.3,66.6,77.8,65.9,77.8z   "></path><path d="M89.8,54.9C89.8,54.9,89.8,54.9,89.8,54.9C89.8,54.9,89.8,54.9,89.8,54.9c0-23-0.8-26.1-22.3-26.5l2.4-6.4l-44.8-2.8   L31,29.9c-6.7,5.4-11.1,13.7-11.1,22.9c0,9.6,4.6,18,11.6,23.4H67c7.1-5.4,11.6-13.8,11.6-23.4c0-8.1-3.3-15.4-8.5-20.7   c6.7,0.2,10.8,0.8,12.9,2.6c2.9,2.5,3,8.3,3,19.8c0,0.1,0,0.2,0,0.3c0,1.1,0.9,1.9,1.9,1.9c1,0,1.8-0.8,1.9-1.7h0   C89.8,55,89.8,54.9,89.8,54.9z M23,52.9c0-8.2,3.8-15.5,9.7-20.3h33.1c5.9,4.8,9.7,12.1,9.7,20.3H23z"></path></g></svg>