<svg xmlns="http://www.w3.org/2000/svg" xmlns:xlink="http://www.w3.org/1999/xlink" version="1.1" x="0px" y="0px" viewBox="0 0 70.8 100" style="enable-background:new 0 0 70.8 100;" xml:space="preserve"><g><path d="M70.7,42.9c0-0.6-0.4-1.2-1-1.4c-11.2-3.7-17.6,2-19.4,3.9h-3.1c0.1-0.4,0.2-0.9,0.3-1.2c4.3-5.4,4-8.9-0.9-14.1l-0.8-0.8   c0-0.1-0.1-0.1-0.2-0.1L43.4,27c-3.2-3.1-5.1-7.2-5.5-11.6c0-0.5-0.3-0.9-0.7-1.1c0.1-0.4,0.2-0.8,0.2-1.3v-0.6   c0-1.7-0.7-2.9-1.8-3.3c0.6-1.7,1.3-5-0.7-8.3C34.6,0.3,34.1,0,33.6,0h-1.5c-0.5,0-1,0.3-1.3,0.7c-2,3.3-1.3,6.6-0.7,8.3   c-1.1,0.4-1.8,1.6-1.8,3.3V13c0,0.4,0.1,0.9,0.1,1.2c-0.4,0.2-0.7,0.7-0.8,1.2c-0.3,4.4-2.3,8.6-5.5,11.6l-2.4,2.3   c-0.1,0.1-0.1,0.2-0.2,0.2L19,30.2c-0.7,0.7-1.2,1.4-1.7,2c-1.8-3.6-5.9-5.9-9.7-5.9c-0.7,0-1.3,0.5-1.5,1.2l-1,5.1   c-0.1,0.4,0,0.9,0.3,1.3c0.3,0.4,0.7,0.6,1.2,0.6c3.5,0,7.6,2.9,7.6,6.6c0,3.1-2.2,5.7-5,6.4c-1.2-0.9-2.9-1.1-4.2-0.3   c-1.4,0.8-2.1,2.4-1.8,4c0.1,0.4,0.2,0.8,0.4,1.2l0.9,1.5C1.7,56.3,0,60,0,64.1v2c0,7.3,5.4,13.4,12.4,14.5c-1.9,3.7-3.9,7-5.1,9   c0,0,0,0,0,0c0,0,0,0.1-0.1,0.1c-0.1,0.2-0.1,0.4-0.1,0.6c0,0,0,0.1,0,0.1c0,0.2,0.1,0.5,0.2,0.7c0,0,0,0,0,0.1c0,0,0,0,0,0   c0,0,0,0.1,0.1,0.1l6.2,8.1c0.3,0.4,0.7,0.6,1.2,0.6h36.1c0.5,0,0.9-0.2,1.2-0.6l6.2-8.1c0,0,0.1-0.1,0.1-0.1c0,0,0,0,0,0   c0,0,0,0,0-0.1c0.1-0.2,0.2-0.4,0.2-0.7c0,0,0-0.1,0-0.1c0-0.2,0-0.4-0.1-0.6c0,0,0-0.1-0.1-0.1c0,0,0,0,0,0   c-2.3-3.8-7.1-12.2-9.9-19.2c0-0.1,0-0.1,0-0.2c0-12.2,13-23.7,20.8-23.8c0.4,0,0.8-0.2,1.1-0.5c0.3-0.3,0.4-0.7,0.4-1.1L70.7,42.9   z M22.5,60.6c0-0.5,0-1.2,0-1.8h20.5c0.1,0,0.2,0,0.3-0.1c0,0.7,0,1.3,0,1.9H22.5z M19.2,34.8c0.6,0,1-0.5,1-1c0-0.1,0-0.2-0.1-0.4   c0.3-0.4,0.7-0.8,1.1-1.2l0.3-0.3h22.6l0.3,0.3c0.4,0.4,0.8,0.8,1.1,1.2c0,0.1-0.1,0.2-0.1,0.4c0,0.6,0.5,1,1,1h0.1   c0.8,1.3,1.1,2.4,0.8,3.5H18.3C18,37.2,18.3,36.1,19.2,34.8L19.2,34.8z M43.2,55.8c-0.1,0-0.2-0.1-0.3-0.1H22.4   c-0.1-3.5-0.3-7.6-0.9-10.7h22.6C43.5,48.2,43.3,52.3,43.2,55.8z M45.4,42H20.3c-0.2-0.2-0.3-0.4-0.4-0.6h26   C45.7,41.6,45.5,41.8,45.4,42z M31.4,12.4c0-0.1,0-0.3,0-0.4h2.9c0,0.1,0,0.2,0,0.4V13c0,0.1,0,0.3,0,0.4h-2.9c0-0.1,0-0.2,0-0.4   V12.4z M35,17c0.2,1.1,0.4,2.2,0.7,3.2h-5.9c0.3-1.1,0.6-2.1,0.7-3.2H35z M32.8,3.4c0.6,1.7,0.3,3.3,0,4.3   C32.5,6.7,32.2,5.1,32.8,3.4z M28.6,23.3C28.6,23.3,28.6,23.3,28.6,23.3l8,0c0.1,0,0.2,0,0.3-0.1c1,2.1,2.3,4,4,5.6H24.6   C26.3,27.2,27.6,25.3,28.6,23.3z M8.4,31.5l0.4-2.1c3,0.5,6.1,3,6.3,6.1C13.5,33.4,10.9,32,8.4,31.5z M17.8,43.7   c0.1,0.2,0.2,0.3,0.4,0.5c0.4,1.4,0.7,3.3,0.9,5.3h-4.4c-0.3,0-0.7,0-1,0C15.6,48.1,17.1,46.1,17.8,43.7z M6.4,49.6   c0.1-0.1,0.2-0.1,0.4-0.1c0.2,0,0.4,0.1,0.5,0.2h0c0.1,0.1,0.1,0.1,0.2,0.2l1.1,2l-1.3,0.8l-1.1-2c0-0.1-0.1-0.1-0.1-0.2   C6,50.1,6.1,49.8,6.4,49.6z M3,66.2v-2c0-3.1,1.2-6,3.3-8c0,0,0,0,0.1,0c0.1,0,0.3,0.1,0.4,0.1c0.3,0,0.5-0.1,0.8-0.2l3.9-2.3   c0.3-0.2,0.6-0.5,0.7-0.9c0.8-0.2,1.7-0.3,2.5-0.3h4.6c0.2,3.3,0.2,6.6,0.1,8.6l0,1c0,4-3.6,11.9-7.1,18.5c0.5-0.9,1-1.9,1.5-2.9   C7.8,77.3,3,72.3,3,66.2z M50.1,97H15.5l-1.6-2c0.1-0.1,0.2-0.3,0.2-0.5c0-0.6-0.5-1-1-1h-0.3l-1.2-1.5H54l-1.2,1.5h-0.3   c-0.6,0-1,0.5-1,1c0,0.2,0.1,0.4,0.2,0.5L50.1,97z M11.2,88.9c3-5.2,10.1-18,11.1-25.3h21c1,7.2,8.1,20,11.1,25.3H11.2z M46.4,63.9   c-0.1-0.7-0.2-1.3-0.2-1.8l0-1c0-2.8,0-8.2,0.5-12.6H51c0.5,0,0.9-0.2,1.2-0.6c0.2-0.3,4.8-6.1,14.2-4.1   C58.9,45.7,49.4,53.9,46.4,63.9z"></path><path d="M23,34.8h0.9c0.6,0,1-0.5,1-1c0-0.6-0.5-1-1-1H23c-0.6,0-1,0.5-1,1C21.9,34.4,22.4,34.8,23,34.8z"></path><path d="M41.8,34.8h0.9c0.6,0,1-0.5,1-1c0-0.6-0.5-1-1-1h-0.9c-0.6,0-1,0.5-1,1C40.8,34.4,41.2,34.8,41.8,34.8z"></path><path d="M27.7,34.8h0.9c0.6,0,1-0.5,1-1c0-0.6-0.5-1-1-1h-0.9c-0.6,0-1,0.5-1,1C26.6,34.4,27.1,34.8,27.7,34.8z"></path><path d="M37.1,34.8H38c0.6,0,1-0.5,1-1c0-0.6-0.5-1-1-1h-0.9c-0.6,0-1,0.5-1,1C36,34.4,36.5,34.8,37.1,34.8z"></path><path d="M32.4,34.8h0.9c0.6,0,1-0.5,1-1c0-0.6-0.5-1-1-1h-0.9c-0.6,0-1,0.5-1,1C31.3,34.4,31.8,34.8,32.4,34.8z"></path><path d="M33.3,93.4h-1c-0.6,0-1,0.5-1,1s0.5,1,1,1h1c0.6,0,1-0.5,1-1S33.9,93.4,33.3,93.4z"></path><path d="M23.2,93.4h-1c-0.6,0-1,0.5-1,1s0.5,1,1,1h1c0.6,0,1-0.5,1-1S23.8,93.4,23.2,93.4z"></path><path d="M28.3,93.4h-1c-0.6,0-1,0.5-1,1s0.5,1,1,1h1c0.6,0,1-0.5,1-1S28.8,93.4,28.3,93.4z"></path><path d="M18.2,93.4h-1c-0.6,0-1,0.5-1,1s0.5,1,1,1h1c0.6,0,1-0.5,1-1S18.7,93.4,18.2,93.4z"></path><path d="M38.4,93.4h-1c-0.6,0-1,0.5-1,1s0.5,1,1,1h1c0.6,0,1-0.5,1-1S38.9,93.4,38.4,93.4z"></path><path d="M48.5,93.4h-1c-0.6,0-1,0.5-1,1s0.5,1,1,1h1c0.6,0,1-0.5,1-1S49,93.4,48.5,93.4z"></path><path d="M43.4,93.4h-1c-0.6,0-1,0.5-1,1s0.5,1,1,1h1c0.6,0,1-0.5,1-1S44,93.4,43.4,93.4z"></path><path d="M24.4,75c-0.5-0.1-1.1,0.3-1.2,0.8l-0.1,0.5c-0.1,0.5,0.3,1.1,0.8,1.2c0.1,0,0.1,0,0.2,0c0.5,0,0.9-0.3,1-0.8l0.1-0.5   C25.3,75.7,25,75.1,24.4,75z"></path><path d="M23.8,78.5c-0.5-0.1-1.1,0.3-1.2,0.8l-0.1,0.5c-0.1,0.5,0.3,1.1,0.8,1.2c0.1,0,0.1,0,0.2,0c0.5,0,0.9-0.3,1-0.8l0.1-0.5   C24.7,79.1,24.3,78.6,23.8,78.5z"></path><path d="M25,71.6c-0.5-0.1-1.1,0.3-1.2,0.8l-0.1,0.5c-0.1,0.5,0.3,1.1,0.8,1.2c0.1,0,0.1,0,0.2,0c0.5,0,0.9-0.3,1-0.8l0.1-0.5   C26,72.2,25.6,71.7,25,71.6z"></path><path d="M26.3,64.6c-0.5-0.1-1.1,0.3-1.2,0.8l-0.1,0.5c-0.1,0.5,0.3,1.1,0.8,1.2c0.1,0,0.1,0,0.2,0c0.5,0,0.9-0.3,1-0.8l0.1-0.5   C27.2,65.2,26.9,64.7,26.3,64.6z"></path><path d="M25.7,68.1c-0.5-0.1-1.1,0.3-1.2,0.8l-0.1,0.5c-0.1,0.5,0.3,1.1,0.8,1.2c0.1,0,0.1,0,0.2,0c0.5,0,0.9-0.3,1-0.8l0.1-0.5   C26.6,68.7,26.2,68.2,25.7,68.1z"></path><path d="M22.7,85.5c-0.6,0-1,0.5-1,1V87c0,0.6,0.5,1,1,1c0.6,0,1-0.5,1-1v-0.5C23.7,85.9,23.3,85.5,22.7,85.5z"></path><path d="M23.2,82c-0.5-0.1-1.1,0.3-1.2,0.8l-0.1,0.5c-0.1,0.5,0.3,1.1,0.8,1.2c0.1,0,0.1,0,0.2,0c0.5,0,0.9-0.3,1-0.8l0.1-0.5   C24.1,82.6,23.7,82.1,23.2,82z"></path><path d="M41.1,74c0.5-0.1,0.9-0.6,0.8-1.2l-0.1-0.5c-0.1-0.6-0.6-0.9-1.2-0.8c-0.5,0.1-0.9,0.6-0.8,1.2l0.1,0.5   c0.1,0.5,0.5,0.8,1,0.8C40.9,74.1,41,74.1,41.1,74z"></path><path d="M40.4,70.6c0.5-0.1,0.9-0.6,0.8-1.2l-0.1-0.5C41,68.3,40.5,68,40,68.1c-0.5,0.1-0.9,0.6-0.8,1.2l0.1,0.5   c0.1,0.5,0.5,0.8,1,0.8C40.3,70.6,40.4,70.6,40.4,70.6z"></path><path d="M42.5,82c-0.5,0.1-0.9,0.6-0.8,1.2l0.1,0.5c0.1,0.5,0.5,0.8,1,0.8c0.1,0,0.1,0,0.2,0c0.5-0.1,0.9-0.6,0.8-1.2l-0.1-0.5   C43.6,82.3,43,81.9,42.5,82z"></path><path d="M42.3,81c0.5-0.1,0.9-0.6,0.8-1.2L43,79.3c-0.1-0.6-0.6-0.9-1.2-0.8c-0.5,0.1-0.9,0.6-0.8,1.2l0.1,0.5   c0.1,0.5,0.5,0.8,1,0.8C42.2,81,42.3,81,42.3,81z"></path><path d="M41.7,77.5c0.5-0.1,0.9-0.6,0.8-1.2l-0.1-0.5c-0.1-0.6-0.6-0.9-1.2-0.8c-0.5,0.1-0.9,0.6-0.8,1.2l0.1,0.5   c0.1,0.5,0.5,0.8,1,0.8C41.6,77.5,41.6,77.5,41.7,77.5z"></path><path d="M39.8,67.1c0.5-0.1,0.9-0.6,0.8-1.2l-0.1-0.5c-0.1-0.6-0.6-0.9-1.2-0.8c-0.5,0.1-0.9,0.6-0.8,1.2l0.1,0.5   c0.1,0.5,0.5,0.8,1,0.8C39.7,67.1,39.7,67.1,39.8,67.1z"></path><path d="M42.9,85.5c-0.6,0-1,0.5-1,1V87c0,0.6,0.5,1,1,1c0.6,0,1-0.5,1-1v-0.5C43.9,85.9,43.5,85.5,42.9,85.5z"></path><path d="M32.8,78.8c-0.6,0-1,0.5-1,1v0.5c0,0.6,0.5,1,1,1c0.6,0,1-0.5,1-1v-0.5C33.8,79.2,33.4,78.8,32.8,78.8z"></path><path d="M32.8,75.3c-0.6,0-1,0.5-1,1v0.5c0,0.6,0.5,1,1,1c0.6,0,1-0.5,1-1v-0.5C33.8,75.7,33.4,75.3,32.8,75.3z"></path><path d="M32.8,82.3c-0.6,0-1,0.5-1,1v0.5c0,0.6,0.5,1,1,1c0.6,0,1-0.5,1-1v-0.5C33.8,82.8,33.4,82.3,32.8,82.3z"></path><path d="M32.8,68.2c-0.6,0-1,0.5-1,1v0.5c0,0.6,0.5,1,1,1c0.6,0,1-0.5,1-1v-0.5C33.8,68.6,33.4,68.2,32.8,68.2z"></path><path d="M32.8,64.6c-0.6,0-1,0.5-1,1v0.5c0,0.6,0.5,1,1,1c0.6,0,1-0.5,1-1v-0.5C33.8,65.1,33.4,64.6,32.8,64.6z"></path><path d="M32.8,71.7c-0.6,0-1,0.5-1,1v0.5c0,0.6,0.5,1,1,1c0.6,0,1-0.5,1-1v-0.5C33.8,72.2,33.4,71.7,32.8,71.7z"></path><path d="M32.8,85.9c-0.6,0-1,0.5-1,1v0.5c0,0.6,0.5,1,1,1c0.6,0,1-0.5,1-1v-0.5C33.8,86.3,33.4,85.9,32.8,85.9z"></path></g></svg>