<svg xmlns="http://www.w3.org/2000/svg" xmlns:xlink="http://www.w3.org/1999/xlink" version="1.1" x="0px" y="0px" viewBox="0 0 100 100" style="enable-background:new 0 0 100 100;" xml:space="preserve"><path d="M69.9,57.7c-0.2,0.2-0.2,0.5,0,0.7c5.5,6.2,3.5,14.7,1.6,18.3c-0.1,0.2,0,0.5,0.2,0.7c0.1,0,0.2,0.1,0.2,0.1  c0.2,0,0.4-0.1,0.4-0.3c2-3.8,4.1-12.8-1.8-19.4C70.5,57.6,70.1,57.5,69.9,57.7z"></path><path d="M89.5,62.7c-1.9-6.7-5.4-17.9-7.3-17.9h-8v-1.2c0-0.3-0.2-0.5-0.5-0.5H39.7c-0.3,0-0.5,0.2-0.5,0.5v1.7l-2.7,1.1  c-0.2,0.1-0.4,0.4-0.3,0.6l2.9,8.7c-1.9,1.9-4.2,5.5-4.2,11.5c0,7.4,2.6,11.7,3.4,12.8v1.7c0,0.3,0.2,0.5,0.5,0.5h35.6  c0.3,0,0.5-0.2,0.5-0.5v-1.4c0,0,0.1,0,0.1-0.1c0.1-0.2,3.2-4.9,3.2-13.9c0-5-2.2-8.5-3.9-10.5c0,0,0,0,0,0l1.1-6.7l4.3,0l5,13.9  c0.1,0.2,0.3,0.3,0.5,0.3h4c0.2,0,0.3-0.1,0.4-0.2C89.5,63,89.5,62.9,89.5,62.7z M71.4,53.8H42l-1.1-8h31.5L71.4,53.8z M40.2,44.1  h33.1v0.7H73H40.4h-0.2V44.1z M40,46l1.1,8.1c-0.3,0.2-0.7,0.4-1.1,0.8l-2.6-7.8L40,46z M73.9,81.2H39.3v-0.7h34.6V81.2z M74.2,79.5  H39.2c-0.6-0.9-3.2-5.1-3.2-12.3c0-5.9,2.3-9.3,4-10.9c0,0,0.1-0.1,0.1-0.1c0.8-0.7,1.4-1.1,1.6-1.3h30c0.8,0.6,5.5,4.5,5.5,11.5  C77.1,74,74.8,78.5,74.2,79.5z M85.3,62.4l-5-13.9c-0.1-0.2-0.3-0.3-0.5-0.3l-5,0c-0.3,0-0.5,0.2-0.5,0.4l-1,6.4  c-0.4-0.4-0.8-0.7-1-0.9l1.1-8.3h0.3c0,0,0,0,0,0l8.4,0c1,0.5,3.9,8.7,6.2,16.6H85.3z"></path><path d="M77.6,83.1H33.9V36.7h10.9v2.6c0,0.3,0.2,0.5,0.5,0.5h9.1v0.9c0,0.3,0.2,0.5,0.5,0.5s0.5-0.2,0.5-0.5v-0.9h9.1  c0.3,0,0.5-0.2,0.5-0.5v-2.6c3.3-0.3,5.9-3.1,5.9-6.5V16.5c0-1.9-1.6-3.5-3.5-3.5H29.4C19,13,10.5,21.5,10.5,31.9v4.3v50.3  c0,0.3,0.2,0.5,0.5,0.5h66.6c0.3,0,0.5-0.2,0.5-0.5v-2.9C78.1,83.3,77.9,83.1,77.6,83.1z M63.9,38.8H45.8v-2.1h18.1V38.8z   M11.5,31.9c0-9.9,8-17.9,17.9-17.9h37.9c1.4,0,2.5,1.1,2.5,2.5v13.7c0,3-2.5,5.5-5.5,5.5h-19H33.4H11.5V31.9z M77.1,86H11.5V36.7  h21.4v46.9c0,0.3,0.2,0.5,0.5,0.5h43.8V86z"></path><path d="M30.1,60.8H14.2c-0.3,0-0.5,0.2-0.5,0.5v6.2c0,0.3,0.2,0.5,0.5,0.5h15.9c0.3,0,0.5-0.2,0.5-0.5v-6.2  C30.6,61.1,30.4,60.8,30.1,60.8z M29.6,67H14.7v-5.2h14.9V67z"></path><path d="M30.1,70.5h-6.9c-0.3,0-0.5,0.2-0.5,0.5v3.7c0,0.3,0.2,0.5,0.5,0.5h6.9c0.3,0,0.5-0.2,0.5-0.5V71  C30.6,70.8,30.4,70.5,30.1,70.5z M29.6,74.2h-5.9v-2.7h5.9V74.2z"></path><path d="M21.1,70.5h-6.9c-0.3,0-0.5,0.2-0.5,0.5v3.7c0,0.3,0.2,0.5,0.5,0.5h6.9c0.3,0,0.5-0.2,0.5-0.5V71  C21.6,70.8,21.4,70.5,21.1,70.5z M20.6,74.2h-5.9v-2.7h5.9V74.2z"></path><path d="M30.1,76.7h-6.9c-0.3,0-0.5,0.2-0.5,0.5v3.7c0,0.3,0.2,0.5,0.5,0.5h6.9c0.3,0,0.5-0.2,0.5-0.5v-3.7  C30.6,76.9,30.4,76.7,30.1,76.7z M29.6,80.4h-5.9v-2.7h5.9V80.4z"></path><path d="M21.1,76.7h-6.9c-0.3,0-0.5,0.2-0.5,0.5v3.7c0,0.3,0.2,0.5,0.5,0.5h6.9c0.3,0,0.5-0.2,0.5-0.5v-3.7  C21.6,76.9,21.4,76.7,21.1,76.7z M20.6,80.4h-5.9v-2.7h5.9V80.4z"></path></svg>