<svg xmlns="http://www.w3.org/2000/svg" xmlns:xlink="http://www.w3.org/1999/xlink" version="1.1" x="0px" y="0px" viewBox="0 0 100 100" enable-background="new 0 0 100 100" xml:space="preserve"><path d="M68.589,47.412l4.314-4.314c0.586-0.586,0.586-1.535,0-2.121s-1.535-0.586-2.121,0l-4.314,4.314l-4.314-4.314  c-0.586-0.586-1.535-0.586-2.121,0s-0.586,1.535,0,2.121l4.314,4.314l-4.314,4.314c-0.586,0.586-0.586,1.535,0,2.121  c0.293,0.293,0.677,0.439,1.061,0.439s0.768-0.146,1.061-0.439l4.314-4.314l4.314,4.314c0.293,0.293,0.677,0.439,1.061,0.439  s0.768-0.146,1.061-0.439c0.586-0.586,0.586-1.535,0-2.121L68.589,47.412z"></path><path d="M40.903,40.977c-0.586-0.586-1.535-0.586-2.121,0l-4.314,4.314l-4.314-4.314c-0.586-0.586-1.535-0.586-2.121,0  s-0.586,1.535,0,2.121l4.314,4.314l-4.314,4.314c-0.586,0.586-0.586,1.535,0,2.121c0.293,0.293,0.677,0.439,1.061,0.439  s0.768-0.146,1.061-0.439l4.314-4.314l4.314,4.314c0.293,0.293,0.677,0.439,1.061,0.439s0.768-0.146,1.061-0.439  c0.586-0.586,0.586-1.535,0-2.121l-4.314-4.314l4.314-4.314C41.489,42.512,41.489,41.563,40.903,40.977z"></path><path d="M50,10.111c-19.4,0-35.183,15.783-35.183,35.183c0,11.018,5.222,21.461,14.006,28.095v3.688  c0,6.856,5.418,12.456,12.196,12.781c0.098,0.02,0.2,0.031,0.305,0.031c0.036,0,0.069-0.008,0.104-0.01  c0.07,0.001,0.137,0.01,0.207,0.01h16.728c0.07,0,0.138-0.009,0.208-0.01c0.035,0.002,0.069,0.01,0.104,0.01  c0.104,0,0.206-0.011,0.305-0.031c6.778-0.325,12.196-5.925,12.196-12.781v-3.688c8.784-6.633,14.006-17.077,14.006-28.095  C85.182,25.895,69.4,10.111,50,10.111z M68.799,71.415c-0.391,0.282-0.623,0.734-0.623,1.217v4.444c0,4.791-3.454,8.784-8,9.638  V77.53c0-0.828-0.671-1.5-1.5-1.5s-1.5,0.672-1.5,1.5v9.358H51.5V77.53c0-0.828-0.671-1.5-1.5-1.5s-1.5,0.672-1.5,1.5v9.358h-5.676  V77.53c0-0.828-0.671-1.5-1.5-1.5s-1.5,0.672-1.5,1.5v9.184c-4.547-0.853-8-4.847-8-9.638v-4.444c0-0.482-0.232-0.935-0.623-1.217  c-8.38-6.042-13.384-15.808-13.384-26.121c0-17.745,14.437-32.183,32.183-32.183c17.745,0,32.182,14.438,32.182,32.183  C82.182,55.608,77.179,65.373,68.799,71.415z"></path><path d="M51.679,56.385c-0.746-1.292-2.612-1.292-3.358,0l-3.747,6.49c-0.746,1.292,0.187,2.908,1.679,2.908h7.494  c1.492,0,2.425-1.616,1.679-2.908L51.679,56.385z"></path></svg>