<svg xmlns="http://www.w3.org/2000/svg" xmlns:xlink="http://www.w3.org/1999/xlink" version="1.1" x="0px" y="0px" viewBox="0 0 100 100" enable-background="new 0 0 100 100" xml:space="preserve"><g><circle fill="none" cx="31.818" cy="57.924" r="11.758"></circle><path fill="none" d="M44.761,76.691h1.772c0.168-0.09,0.327-0.199,0.465-0.337l1.914-1.911c0.6-0.601,1.575-0.601,2.175,0   l1.985,1.984c0.106,0.107,0.225,0.191,0.348,0.265h1.81c0.165-0.097,0.322-0.214,0.456-0.369c0.618-0.721,0.499-1.822-0.172-2.493   l-4.254-4.254c-0.697-0.697-1.825-0.697-2.52,0l-4.332,4.33c-0.738,0.738-0.694,1.963,0.137,2.642   C44.613,76.604,44.687,76.648,44.761,76.691z"></path><circle fill="none" cx="68.179" cy="57.924" r="11.759"></circle><path d="M76.609,5H23.389C14.89,5,8,11.891,8,20.39v47.096c0,8.498,6.89,15.389,15.389,15.389h3.93v7.442   c0,2.585,2.097,4.682,4.682,4.682c2.587,0,4.682-2.097,4.682-4.682c0-0.728,0.59-1.316,1.316-1.316   c0.728,0,1.318,0.588,1.318,1.316c0,2.585,2.096,4.682,4.682,4.682c2.587,0,4.683-2.097,4.683-4.682   c0-0.728,0.59-1.316,1.317-1.316c0.725,0,1.313,0.585,1.316,1.31v0.005C51.316,92.903,53.413,95,56,95   c2.585,0,4.682-2.097,4.682-4.682c0-0.728,0.588-1.316,1.316-1.316c0.728,0,1.316,0.588,1.316,1.316   c0,2.585,2.097,4.682,4.685,4.682c2.585,0,4.681-2.097,4.681-4.682v-7.442h3.929C85.109,82.876,92,75.985,92,67.487V20.39   C92,11.891,85.109,5,76.609,5z M44.408,73.907l4.332-4.33c0.696-0.697,1.823-0.697,2.52,0l4.254,4.254   c0.671,0.67,0.79,1.771,0.172,2.493c-0.133,0.155-0.29,0.271-0.456,0.369h-1.81c-0.123-0.074-0.242-0.158-0.348-0.265l-1.985-1.984   c-0.6-0.601-1.575-0.601-2.175,0l-1.914,1.911c-0.138,0.139-0.298,0.248-0.465,0.337h-1.772c-0.074-0.043-0.148-0.087-0.216-0.143   C43.715,75.869,43.67,74.645,44.408,73.907z M20.061,57.924c0-6.492,5.263-11.758,11.758-11.758   c6.495,0,11.758,5.266,11.758,11.758c0,6.495-5.263,11.759-11.758,11.759C25.324,69.683,20.061,64.419,20.061,57.924z    M68.179,69.683c-6.493,0-11.758-5.264-11.758-11.759c0-6.492,5.265-11.758,11.758-11.758c6.495,0,11.761,5.266,11.761,11.758   C79.939,64.419,74.674,69.683,68.179,69.683z"></path></g></svg>