<?xml version="1.0" encoding="UTF-8"?>
<svg width="100px" height="100px" viewBox="0 0 100 100" version="1.1" xmlns="http://www.w3.org/2000/svg" xmlns:xlink="http://www.w3.org/1999/xlink">
    <!-- Generator: Sketch 48.1 (47250) - http://www.bohemiancoding.com/sketch -->
    <title>np_coffee-mug_990965_000000</title>
    <desc>Created with Sketch.</desc>
    <defs>
        <linearGradient x1="15.1663258%" y1="8.09306109%" x2="91.9719563%" y2="90.2769021%" id="linearGradient-1">
            <stop stop-color="#FD4757" offset="0%"></stop>
            <stop stop-color="#1D7DB9" offset="100%"></stop>
        </linearGradient>
    </defs>
    <g id="Page-1" stroke="none" stroke-width="1" fill="none" fill-rule="evenodd">
        <g id="np_coffee-mug_990965_000000">
            <path d="M100,50.004 C100,77.602 77.598,100.004 50,100.004 C22.406,100.004 0,77.602 0,50.004 C0,22.406 22.406,0.004 50,0.004 C77.598,0.004 100,22.406 100,50.004 Z" id="Path" fill="url(#linearGradient-1)"></path>
            <path d="M66.789,74.68 C54.461,82.7894 37.703,80.9808 27.426,69.7464 C16.043,57.2854 16.914,37.9264 29.3674,26.5394 C41.8284,15.1524 61.1874,16.0194 72.5744,28.4769 C82.8474,39.7189 83.1444,56.5749 73.9572,68.1249 L79.1799,73.8397 C79.77756,74.48814 80.08615,75.3514 80.05099,76.2342 C80.008021,77.11701 79.6213,77.9451 78.96899,78.5428 C78.23852,79.20686 77.44169,79.9373 76.71509,80.6014 C76.06275,81.19515 75.20339,81.50765 74.32059,81.47249 C73.43778,81.429522 72.60969,81.0428 72.01199,80.39049 L66.789,74.68 Z" id="Path" fill="#FFFFFF"></path>
            <path d="M65.7187,66.3089 C56.2265,74.9847 41.4807,74.3245 32.8007,64.8323 C24.1288,55.3362 24.789,40.5903 34.2812,31.9103 C43.7773,23.2384 58.5232,23.9025 67.2032,33.3947 C75.8751,42.8869 75.211,57.6327 65.7188,66.3087 L65.7187,66.3089 Z" id="Path" fill="#351D09"></path>
            <path d="M67.707,53.4729 C68.05856,52.0471 68.23434,50.5823 68.23434,49.1135 C68.23434,43.7502 65.87104,38.6565 61.77734,35.1915 L60.44144,36.7696 C64.07034,39.8399 66.16804,44.3555 66.16804,49.1136 C66.16804,50.4144 66.00788,51.7113 65.69929,52.9769 L67.707,53.4729 Z" id="Path" fill="#FFFFFF"></path>
            <path d="M59.4922,33.5429 C57.5,32.3281 55.2969,31.5077 52.9961,31.1249 L52.65626,33.1679 C54.69536,33.50384 56.64846,34.2304 58.41406,35.3085 L59.4922,33.5429 Z" id="Path" fill="#FFFFFF"></path>
        </g>
    </g>
</svg>